<?xml version="1.0" ?><!DOCTYPE svg  PUBLIC '-//W3C//DTD SVG 1.1//EN'  'http://www.w3.org/Graphics/SVG/1.1/DTD/svg11.dtd'><svg enable-background="new 0 0 64 64" height="64px" id="Layer_1" version="1.1" viewBox="0 0 64 64" width="64px" xml:space="preserve" xmlns="http://www.w3.org/2000/svg" xmlns:xlink="http://www.w3.org/1999/xlink"><g><path style="fill: #ccc" d="M57.922-0.023H6.078c-2.898,0-5.247,2.369-5.247,5.292v19.87v9.511v5.291h5.247h51.844h5.247V34.65V25.14   V5.27C63.169,2.346,60.82-0.023,57.922-0.023z M54.451,25.899c0,0.959-0.776,1.735-1.735,1.735H11.284   c-0.959,0-1.735-0.776-1.735-1.735V24.38c0-0.958,0.776-1.735,1.735-1.735h41.432c0.959,0,1.735,0.778,1.735,1.735V25.899z    M54.451,15.487c0,0.959-0.776,1.735-1.735,1.735H11.284c-0.959,0-1.735-0.776-1.735-1.735v-1.519c0-0.958,0.776-1.735,1.735-1.735   h41.432c0.959,0,1.735,0.778,1.735,1.735V15.487z" fill="#241F20"/><g><path style="fill: #ccc" d="M20.437,59.031h-2.052v-1.736v-0.254v-8.287c0-1.635-1.302-1.789-1.732-1.801h-0.446    c0,0-1.871-0.07-1.871,1.963v8.125v0.254v1.736h-1.898c0,0-1.066,0.074-0.001,1.203l3.233,3.43l0,0c0,0,0.003,0.004,0.003,0.006    l0.061,0.064c0.173,0.174,0.702,0.588,1.359-0.07l3.349-3.359C21.635,59.102,20.437,59.031,20.437,59.031z" fill="#241F20"/><path style="fill: #ccc" d="M35.812,59.031h-1.827v-1.736v-0.254v-8.07c0-1.617-0.94-1.955-1.537-2.018h-0.803    c-0.569,0.041-1.708,0.316-1.708,1.883v8.205v0.254v1.736h-1.969c-0.282,0.002-1.097,0.117,0.084,1.371l2.8,2.971l0,0l0.001,0.002    l0.23,0.244c0.315,0.275,0.936,0.576,1.754-0.246c0.001,0,0.001,0,0.003,0l2.973-2.986C37.079,59.115,35.812,59.031,35.812,59.031    z" fill="#241F20"/><path style="fill: #ccc" d="M51.511,59.031h-1.816v-1.736v-0.254v-8.26c0-1.484-0.989-1.779-1.583-1.828h-0.708    c-0.546,0.031-1.758,0.279-1.758,1.963v8.125v0.254v1.736h-1.89c0,0-1.178,0.117,0,1.369l0,0l3.047,3.229l0,0    c0,0,0.009,0.012,0.011,0.014l0.028,0.027c0.149,0.156,0.742,0.668,1.449-0.041c0.002,0,0.002,0,0.004,0l3.218-3.229    C52.692,59.213,51.511,59.031,51.511,59.031z" fill="#241F20"/></g></g></svg>
