<?xml version="1.0" encoding="iso-8859-1"?>
<!-- Generator: Adobe Illustrator 16.0.0, SVG Export Plug-In . SVG Version: 6.00 Build 0)  -->
<!DOCTYPE svg PUBLIC "-//W3C//DTD SVG 1.1//EN" "http://www.w3.org/Graphics/SVG/1.1/DTD/svg11.dtd">
<svg version="1.1" id="Capa_1" xmlns="http://www.w3.org/2000/svg" xmlns:xlink="http://www.w3.org/1999/xlink" x="0px" y="0px"
	 width="98.291px" height="98.292px" viewBox="0 0 98.291 98.292" style="enable-background:new 0 0 98.291 98.292;"
	 xml:space="preserve">
<g>
	<g>
		<path style="fill: #e5e5e5" d="M75.715,68.998c0,0,4.504-1.067,4.504-3.142c0-2.08,0-12.457,0-15.718c0-2.95-3.651-4.167-4.35-4.447v-0.07H8.952v1.095
			v0.955v1.417h44.102c1.581,0,2.915,1.047,3.378,2.478H12.219v2.375h44.397v2.074H12.219v2.375h44.397v1.957H12.219v2.375h44.397
			v2.074H12.219v2.378h43.979c-0.596,1.133-1.772,1.924-3.142,1.924H8.952v0.94v1.431v0.5h44.091c0.096,0,0.205,0,0.322,0
			c1.361,0,4.048,0.01,6.063-0.739L75.715,68.998z"/>
		<path style="fill: #e5e5e5" d="M53.365,71.961H22.427v0.064c-0.702,0.274-4.353,1.496-4.353,4.445c0,3.262,0,13.641,0,15.715s4.503,3.142,4.503,3.142
			l16.281,2.231c2.018,0.739,4.709,0.732,6.065,0.732c0.118,0,0.221-0.004,0.322-0.004h44.093v-0.489v-1.438v-0.938H45.235
			c-1.37,0-2.548-0.79-3.143-1.923h43.982v-2.368H41.678v-2.081h44.396v-2.368H41.678v-1.961h44.396v-2.375H41.678V80.27h44.396
			v-2.368H41.861c0.462-1.438,1.797-2.478,3.377-2.478h44.1V74v-0.951v-1.095H53.365V71.961z"/>
		<path style="fill: #e5e5e5" d="M47.229,45.085c0.338,0.021,4.617-0.659,5.438,0.036c10.8,0,17.356-12.857,17.356-22.292
			c0.668-10.47-9.862-13.911-18.821-12.041c-0.13-0.199-0.353-0.539-0.619-1.008c1.83,0.578,3.397,0.592,4.883,0.438
			c1.499-0.189,2.896-0.61,4.186-1.23c1.301-0.625,2.495-1.451,3.576-2.524c1.078-1.093,2.061-2.365,2.751-4.24
			c-1.889-0.626-3.49-0.648-5.01-0.484c-1.499,0.187-2.889,0.611-4.182,1.237c-1.294,0.632-2.484,1.461-3.576,2.527
			c-1.047,1.073-2.016,2.32-2.705,4.132C49.515,7.866,47.924,4.478,47.215,0l-2.173,0.349c0.729,4.693,2.363,8.249,3.45,10.226
			c-8.67-1.332-18.234,2.257-17.607,12.254C30.885,31.964,36.899,44.307,47.229,45.085z"/>
	</g>
</g>
<g>
</g>
<g>
</g>
<g>
</g>
<g>
</g>
<g>
</g>
<g>
</g>
<g>
</g>
<g>
</g>
<g>
</g>
<g>
</g>
<g>
</g>
<g>
</g>
<g>
</g>
<g>
</g>
<g>
</g>
</svg>
