<svg xmlns="http://www.w3.org/2000/svg" xmlns:xlink="http://www.w3.org/1999/xlink" version="1.1" x="0px" y="0px" viewBox="40 25 120 150" style="enable-background:new 0 0 200 200;" xml:space="preserve"><style type="text/css">
	.st0{fill:none;stroke:#000000;stroke-width:5;stroke-linecap:round;stroke-linejoin:round;stroke-miterlimit:10;}
	.st1{fill:none;stroke:#000000;stroke-width:5;stroke-linejoin:round;stroke-miterlimit:10;}
	.st2{fill:none;stroke:#000000;stroke-width:5;stroke-miterlimit:10;}
	.st3{fill:none;stroke:#000000;stroke-width:5;stroke-linecap:square;stroke-miterlimit:10;}
	.st4{fill:none;stroke:#000000;stroke-width:4;stroke-miterlimit:10;}
	.st5{fill:none;stroke:#000000;stroke-width:5;stroke-linecap:round;stroke-miterlimit:10;}
	.st6{fill:none;stroke:#000000;stroke-width:5;stroke-linejoin:bevel;stroke-miterlimit:10;}
</style><path class="st0" d="M-942.3-378.7c0,15.3,8.3,28.7,20.7,35.9c6.1,3.5,13.1,5.5,20.7,5.5c22.8,0,41.4-18.5,41.4-41.4  s-18.5-41.4-41.4-41.4c-7.5,0-14.6,2-20.7,5.5C-934-407.4-942.3-394-942.3-378.7z"/><polygon class="st0" points="-921.2,-413.8 -921.2,-343.5 -860.4,-378.7 "/><circle class="st1" cx="-757.6" cy="-374.7" r="35.8"/><path class="st2" d="M-465.7-357.9c0,17.2-14,31.2-31.2,31.2s-31.2-14-31.2-31.2c0-11.1,5.7-20.8,14.4-26.3  c4.8-3.1,10.6-4.9,16.8-4.9s11.9,1.8,16.8,4.9C-471.4-378.7-465.7-369-465.7-357.9z"/><line class="st1" x1="-757.6" y1="-410.5" x2="-729.7" y2="-410.5"/><line class="st1" x1="-821.2" y1="-374.7" x2="-765.4" y2="-374.7"/><polygon points="-719.2,-410.5 -729.7,-416.6 -729.7,-404.5 "/><polygon points="-757.8,-374.3 -768.3,-380.4 -768.3,-368.3 "/><polygon class="st2" points="-583.8,-347.8 -603.2,-345.2 -622.5,-342.6 -641.9,-340 -661.3,-337.4 -661.3,-350.8 -661.3,-364.2   -661.3,-377.6 -661.3,-391 -641.9,-388.4 -622.5,-385.8 -603.2,-383.2 -583.8,-380.6 -583.8,-372.4 -583.8,-364.2 -583.8,-356 "/><polyline class="st3" points="-603.2,-384 -603.2,-407.2 -583.8,-407.2 "/><polygon class="st4" points="-573.5,-407.2 -582,-412 -582,-402.4 "/><polyline class="st2" points="-671.5,-407.2 -641.9,-407.2 -641.9,-389.2 "/><path class="st2" d="M-480.1-403.5v19.2c-4.8-3.1-10.6-4.9-16.8-4.9s-11.9,1.8-16.8,4.9v-19.2H-480.1z"/><polyline class="st3" points="-496.9,-403.5 -496.9,-418.6 -478.2,-418.6 "/><polygon class="st4" points="-469.3,-418.6 -476.7,-422.8 -476.7,-414.3 "/><line class="st3" x1="-543.3" y1="-393.1" x2="-530.8" y2="-393.1"/><polygon class="st4" points="-521.8,-393.1 -529.2,-397.3 -529.2,-388.9 "/><polyline class="st3" points="-324.3,-365.1 -333.5,-365.1 -344.7,-383.5 -356,-365.1 -367.2,-383.5 -378.4,-365.1 -389.6,-383.5   -400.8,-365.1 -412,-383.5 -421.3,-383.5 -421.3,-403.7 -324.3,-403.7 -324.3,-355.1 -421.3,-355.1 -421.3,-383.5 "/><polyline class="st3" points="-421.3,-355.1 -421.3,-345 -324.3,-345 -324.3,-355.1 "/><path class="st3" d="M-197.2-375.6c0,5.3-1.1,10.4-3,15.1c-2,4.6-4.8,8.8-8.3,12.3s-7.7,6.3-12.3,8.3s-9.7,3-15.1,3  s-10.5-1.1-15.1-3s-8.8-4.8-12.3-8.3s-6.4-7.7-8.3-12.3c-2-4.6-3-9.7-3-15.1c0-5.3,1.1-10.4,3-15.1c2-4.6,4.8-8.8,8.3-12.3  s7.7-6.3,12.3-8.3s9.7-3,15.1-3s10.5,1.1,15.1,3c4.6,2,8.8,4.8,12.3,8.3s6.4,7.7,8.3,12.3C-198.2-386.1-197.2-381-197.2-375.6z"/><line class="st2" x1="-251.1" y1="-411.3" x2="-200.2" y2="-390.7"/><line class="st2" x1="-251.1" y1="-339.9" x2="-200.2" y2="-360.5"/><g><path class="st5" d="M-236-375.6L-236-375.6c2.1-8-2.6-16.2-10.6-18.3l0,0l0,0C-248.7-385.9-243.9-377.8-236-375.6L-236-375.6z"/><path class="st5" d="M-235.9-375.6L-235.9-375.6c5.8,5.8,15.3,5.8,21.2,0l0,0l0,0C-220.6-381.4-230.1-381.4-235.9-375.6   L-235.9-375.6z"/><path class="st5" d="M-235.9-375.6L-235.9-375.6c2.1,8-2.6,16.2-10.6,18.3l0,0l0,0C-248.7-365.3-243.9-373.5-235.9-375.6   L-235.9-375.6z"/></g><line class="st3" x1="-274.8" y1="-375.6" x2="-284.5" y2="-375.6"/><line class="st3" x1="-197.2" y1="-375.6" x2="-187.5" y2="-375.6"/><path class="st3" d="M-103.8-410.9c-11,0-20.9,4.4-28.1,11.6c-7.2,7.2-11.6,17.1-11.6,28.1s4.4,20.9,11.6,28.1  c7.2,7.2,17.1,11.6,28.1,11.6s20.9-4.4,28.1-11.6s11.6-17.1,11.6-28.1v-11.5h17.6v-28.2H-103.8"/><path class="st3" d="M-86.8-371.2c0,4.7-1.9,8.9-5,12s-7.3,5-12,5s-8.9-1.9-12-5s-5-7.3-5-12s1.9-8.9,5-12s7.3-5,12-5s8.9,1.9,12,5  C-88.7-380.2-86.8-375.9-86.8-371.2z"/><path class="st3" d="M50.6-374.9l-33.5-8.2c-2.5-0.6-5.1-0.2-7.3,1.1l0,0c-5.3,3.2-5.3,10.9,0,14.1l0,0c2.2,1.3,4.8,1.7,7.3,1.1  L50.6-374.9z"/><path class="st3" d="M58.2-374.9l33.5-8.2c2.5-0.6,5.1-0.2,7.3,1.1l0,0c5.3,3.2,5.3,10.9,0,14.1l0,0c-2.2,1.3-4.8,1.7-7.3,1.1  L58.2-374.9z"/><polyline class="st3" points="234.3,-386.6 203.7,-399.3 173,-386.6 142.3,-399.3 "/><polyline class="st3" points="142.3,-381.5 173,-368.7 203.7,-381.5 234.3,-368.7 "/><polyline class="st3" points="142.3,-363.6 173,-350.9 203.7,-363.6 234.3,-350.9 "/><polyline class="st3" points="234.3,-333 203.7,-345.8 173,-333 142.3,-345.8 "/><g><path d="M234.3-399.3v67.1h-92v-67.1H234.3 M239.3-404.3h-5h-92h-5v5v67.1v5h5h92h5v-5v-67.1V-404.3L239.3-404.3z"/></g><path class="st3" d="M381.3-369.1c-6.4,5.5-21.6,9.5-39.3,9.5s-32.9-3.9-39.3-9.5c3.3-0.9,5.7-3.2,5.7-5.8c0-2.7-2.4-4.9-5.7-5.8  c6.4-5.5,21.6-9.5,39.3-9.5s32.9,3.9,39.3,9.5c-3.3,0.9-5.7,3.2-5.7,5.8C375.6-372.2,377.9-370,381.3-369.1z"/><path class="st3" d="M308.4-374.9c0,2.7-2.4,4.9-5.7,5.8c-1,0.3-2.1,0.4-3.2,0.4c-4.9,0-8.9-2.8-8.9-6.3s4-6.3,8.9-6.3  c1.1,0,2.2,0.1,3.2,0.4C306-379.8,308.4-377.6,308.4-374.9z"/><path class="st3" d="M393.4-374.9c0,3.5-4,6.3-8.9,6.3c-1.1,0-2.2-0.2-3.2-0.4c-3.3-0.9-5.7-3.2-5.7-5.8c0-2.7,2.4-4.9,5.7-5.8  c1-0.3,2.1-0.4,3.2-0.4C389.4-381.2,393.4-378.4,393.4-374.9z"/><line class="st3" x1="316.9" y1="-374.9" x2="308.4" y2="-374.9"/><line class="st3" x1="290.6" y1="-374.9" x2="282.1" y2="-374.9"/><line class="st3" x1="401.9" y1="-374.9" x2="393.4" y2="-374.9"/><line class="st3" x1="375.6" y1="-374.9" x2="367.1" y2="-374.9"/><line class="st3" x1="299.5" y1="-363.6" x2="299.5" y2="-368.7"/><line class="st3" x1="299.5" y1="-381.2" x2="299.5" y2="-386.2"/><line class="st3" x1="282.1" y1="-386.2" x2="282.1" y2="-363.6"/><line class="st3" x1="384.5" y1="-381.2" x2="384.5" y2="-386.2"/><line class="st3" x1="384.5" y1="-368.7" x2="384.5" y2="-363.6"/><line class="st3" x1="401.9" y1="-386.2" x2="401.9" y2="-363.6"/><g><rect x="444.6" y="-411.9" class="st3" width="82" height="82"/><line class="st3" x1="471.3" y1="-411.9" x2="471.3" y2="-384.8"/><line class="st3" x1="471.3" y1="-356.9" x2="471.3" y2="-329.9"/><line class="st3" x1="500" y1="-411.9" x2="500" y2="-384.8"/><line class="st3" x1="500" y1="-356.9" x2="500" y2="-329.9"/></g><rect x="572.3" y="-392.2" class="st3" width="99.3" height="11.8"/><rect x="560.5" y="-392.1" class="st3" width="11.8" height="47"/><rect x="671.6" y="-392.2" class="st3" width="11.8" height="47"/><rect x="572.3" y="-380.4" class="st3" width="99.3" height="11.8"/><rect x="572.3" y="-368.7" class="st3" width="99.3" height="11.8"/><rect x="572.3" y="-356.9" class="st3" width="99.3" height="11.8"/><rect x="728.5" y="-415.5" class="st2" width="82" height="82"/><polyline class="st6" points="728.5,-333.5 810.5,-349.6 728.5,-365.6 810.5,-384.2 728.5,-397.7 810.5,-415.5 "/><rect x="850.7" y="-394.4" class="st2" width="97" height="44"/><line class="st4" x1="860" y1="-386.8" x2="860" y2="-381.4"/><line class="st4" x1="872.5" y1="-384.1" x2="867.2" y2="-384.1"/><line class="st4" x1="879.6" y1="-386.8" x2="879.6" y2="-381.4"/><line class="st4" x1="892.1" y1="-384.1" x2="886.8" y2="-384.1"/><line class="st4" x1="899.2" y1="-386.8" x2="899.2" y2="-381.4"/><line class="st4" x1="911.7" y1="-384.1" x2="906.4" y2="-384.1"/><line class="st4" x1="918.8" y1="-386.8" x2="918.8" y2="-381.4"/><line class="st4" x1="931.3" y1="-384.1" x2="925.9" y2="-384.1"/><line class="st4" x1="938.4" y1="-386.8" x2="938.4" y2="-381.4"/><line class="st4" x1="862.7" y1="-372.4" x2="857.4" y2="-372.4"/><line class="st4" x1="869.8" y1="-375.1" x2="869.8" y2="-369.7"/><line class="st4" x1="882.3" y1="-372.4" x2="877" y2="-372.4"/><line class="st4" x1="889.4" y1="-375.1" x2="889.4" y2="-369.7"/><line class="st4" x1="901.9" y1="-372.4" x2="896.6" y2="-372.4"/><line class="st4" x1="909" y1="-375.1" x2="909" y2="-369.7"/><line class="st4" x1="921.5" y1="-372.4" x2="916.1" y2="-372.4"/><line class="st4" x1="928.6" y1="-375.1" x2="928.6" y2="-369.7"/><line class="st4" x1="941.1" y1="-372.4" x2="935.7" y2="-372.4"/><line class="st4" x1="860" y1="-363.4" x2="860" y2="-358"/><line class="st4" x1="872.5" y1="-360.7" x2="867.2" y2="-360.7"/><line class="st4" x1="879.6" y1="-363.4" x2="879.6" y2="-358"/><line class="st4" x1="892.1" y1="-360.7" x2="886.8" y2="-360.7"/><line class="st4" x1="899.2" y1="-363.4" x2="899.2" y2="-358"/><line class="st4" x1="911.7" y1="-360.7" x2="906.4" y2="-360.7"/><line class="st4" x1="918.8" y1="-363.4" x2="918.8" y2="-358"/><line class="st4" x1="931.3" y1="-360.7" x2="925.9" y2="-360.7"/><line class="st4" x1="938.4" y1="-363.4" x2="938.4" y2="-358"/><g><path style="fill: #e5e5e5" d="M125.7,29.5c-38.8-14.1-82,5.9-96.1,44.8s6,82,44.8,96.1c38.8,14.1,82-5.9,96.1-44.8C184.6,86.7,164.5,43.6,125.7,29.5z    M119.8,131.5c-2.4,1.7-5.2,2.8-8.1,3.3c-2.9,0.6-5.9,0.6-9.1,0.2c-2.2-0.3-4.5-0.7-6.8-1.4l-4.5,12.5l-7.2-2.6l4.5-12.5l-7.3-2.7   l-4.5,12.5l-7.2-2.6l4.5-12.5L58.5,120l2.7-7.5l2.3,0.6c0.8,0.3,1.9,0.5,3.4,0.9c1.9,0.5,2.6,0.4,2.8,0.5c0.8,0,1.1-0.2,1.1-0.2   c0.2-0.2,0.4-0.5,0.6-1.1l15-41.3c0.2-0.6,0.2-1,0.2-1.4c0-0.1-0.2-0.4-0.7-0.9c-0.7-0.7-1.6-1.2-2.4-1.8c-1.1-0.6-2-1-2.6-1.4   l-2.2-1l2.7-7.5l15.2,5.5l4.5-12.3l7.2,2.6L104,66.2l7.3,2.7l4.5-12.5l7.2,2.6l-4.6,12.6c1.5,0.6,2.9,1.4,4.2,2.1   c2.3,1.4,4.3,3,6.2,4.9c1.8,1.9,3.1,4.1,3.9,6.6c0.8,2.6,0.7,5.4-0.3,8.2c-0.9,2.4-2.2,4.4-4,6c-1.7,1.5-3.8,2.6-6.1,3.3   c-1.4,0.4-3,0.7-4.7,0.9c1.7,1.4,3.2,2.8,4.5,4.4c1.8,2.1,3.1,4.5,3.9,7.3c0.8,2.8,0.6,5.9-0.5,9   C124.2,127.2,122.4,129.7,119.8,131.5z"/><path style="fill: #e5e5e5" d="M108.8,117.7c-2.1,5.7-8.4,8.7-14.1,6.6l-10.5-3.8l7.5-20.7l10.5,3.8C107.9,105.7,110.8,112,108.8,117.7z"/><path style="fill: #e5e5e5" d="M115.2,89.2c-1.7,4.8-7,7.2-11.8,5.5l-8.6-3.1l6.3-17.4l8.6,3.1C114.4,79.1,116.9,84.5,115.2,89.2z"/></g></svg>
