<svg xmlns="http://www.w3.org/2000/svg" xmlns:xlink="http://www.w3.org/1999/xlink" version="1.1" x="0px" y="0px" viewBox="0 0 100 125" enable-background="new 0 20 100 80" xml:space="preserve"><g><path style="fill: #888" d="M47.608,78.336V16.633h-0.047c-0.84-4.235-4.566-7.303-8.891-7.303c-3.853,0-7.144,2.421-8.454,5.817   c-1.01-0.333-2.082-0.514-3.184-0.514c-5.616,0-10.185,4.569-10.185,10.185c0,1.442,0.305,2.84,0.881,4.132   C13,30.532,9.58,34.993,9.58,40.247c0,2.578,0.834,4.985,2.255,6.955c-1.276,1.93-1.972,4.189-1.972,6.539   c0,4.822,2.895,8.977,7.035,10.834c-0.873,1.406-1.368,3.037-1.368,4.748c0,4.541,3.379,8.299,7.753,8.914   c-0.002,0.088-0.011,0.176-0.011,0.264c0,6.711,5.46,12.17,12.171,12.17s12.171-5.459,12.171-12.17   c0-0.055-0.008-0.109-0.009-0.164H47.608z M35.443,86.67c-4.506,0-8.171-3.664-8.171-8.17c0-0.209,0.036-0.414,0.052-0.623   c2.154-0.699,4.009-2.184,5.128-4.234l-3.51-1.916c-0.88,1.609-2.565,2.609-4.399,2.609c-2.764,0-5.013-2.25-5.013-5.014   c0-1.441,0.617-2.787,1.672-3.73c0.181,0.008,0.358,0.027,0.54,0.027c3.244,0,6.3-1.33,8.507-3.594   c0.668,0.16,1.361,0.254,2.077,0.254c0.735,0,1.469-0.092,2.181-0.271l-0.977-3.879c-0.393,0.1-0.798,0.15-1.204,0.15   c-2.718,0-4.929-2.211-4.929-4.93l0.005-0.227l-3.996-0.154c-0.005,0.127-0.009,0.254-0.009,0.381c0,2.67,1.184,5.063,3.046,6.699   c-1.339,0.998-2.979,1.57-4.701,1.57c-4.345,0-7.879-3.535-7.879-7.879c0-1.295,0.319-2.547,0.91-3.669   c1.518,1.042,3.288,1.751,5.218,1.998l0.506-3.968c-3.943-0.502-6.917-3.879-6.917-7.854c0-4.366,3.552-7.918,7.918-7.918   c2.077,0,4.02,0.801,5.474,2.199c-1.832,1.689-2.988,4.101-2.988,6.783c0,0.271,0.013,0.541,0.036,0.811l3.984-0.351   c-0.014-0.153-0.021-0.307-0.021-0.46c0-2.889,2.35-5.238,5.238-5.238c0.624,0,1.236,0.109,1.82,0.326l1.391-3.75   c-1.03-0.383-2.11-0.576-3.211-0.576c-0.939,0-1.845,0.143-2.699,0.404c-2.145-2.5-5.215-3.988-8.552-4.119   c-0.73-1.043-1.122-2.263-1.122-3.54c0-3.411,2.774-6.185,6.185-6.185c0.924,0,1.809,0.216,2.611,0.592   c0.002,0.016,0.002,0.033,0.003,0.049l0.097-0.009c1.428,0.698,2.571,1.933,3.122,3.497l3.773-1.329   c-0.591-1.675-1.598-3.119-2.874-4.244c0.545-2.21,2.529-3.859,4.905-3.859c2.381,0,4.429,1.669,4.938,3.982v60.35l-0.037,0.004   c0.029,0.277,0.043,0.555,0.043,0.834C43.614,83.006,39.949,86.67,35.443,86.67z"/><path style="fill: #888" d="M90.42,40.247c0-5.268-3.35-9.718-8.133-11.297c0.557-1.27,0.865-2.668,0.865-4.132c0-5.616-4.568-10.185-10.186-10.185   c-1.105,0-2.178,0.177-3.184,0.506c-1.311-3.392-4.6-5.809-8.447-5.809c-4.328,0-8.047,3.066-8.885,7.303h-0.059v61.703h0.004   c0,0.055-0.01,0.109-0.01,0.164c0,6.711,5.461,12.17,12.172,12.17s12.17-5.459,12.17-12.17c0-0.088-0.008-0.176-0.01-0.264   c4.373-0.615,7.752-4.373,7.752-8.914c0-1.707-0.477-3.346-1.354-4.754c4.133-1.863,7.02-6.012,7.02-10.828   c0-2.412-0.727-4.655-1.965-6.53C89.641,45.17,90.42,42.764,90.42,40.247z M78.258,61.619c-0.951,0-1.887-0.176-2.768-0.506   c1.207-2.844,0.605-6.256-1.719-8.498l-2.777,2.879c1.373,1.324,1.486,3.508,0.256,4.969c-1.266,1.504-3.473,1.738-5.023,0.531   l-2.455,3.158c1.4,1.088,3.053,1.617,4.693,1.617c1.57,0,3.125-0.492,4.441-1.438c1.65,0.832,3.482,1.287,5.352,1.287   c0.182,0,0.357-0.02,0.537-0.027c1.064,0.951,1.676,2.295,1.676,3.73c0,2.764-2.248,5.014-5.012,5.014   c-0.375,0-0.744-0.055-1.105-0.135c0.578-1.002,0.926-2.156,0.965-3.398l-3.998-0.129c-0.055,1.746-1.467,3.113-3.213,3.113   c-1.055,0-2.043-0.52-2.645-1.387l-3.289,2.277c1.348,1.947,3.566,3.109,5.934,3.109c1.051,0,2.045-0.227,2.943-0.625   c0.52,0.293,1.063,0.533,1.627,0.717c0.016,0.207,0.051,0.412,0.051,0.621c0,4.506-3.664,8.17-8.17,8.17s-8.172-3.664-8.172-8.17   c0-0.316,0.02-0.637,0.057-0.953l-0.051-0.006V17.349c0.492-2.334,2.547-4.02,4.943-4.02c2.367,0,4.346,1.642,4.895,3.843   c-0.496,0.438-0.949,0.929-1.355,1.461c-0.066-0.002-0.133-0.01-0.199-0.01c-3.041,0-5.631,2.173-6.158,5.168l3.939,0.694   c0.189-1.079,1.123-1.862,2.219-1.862c1.242,0,2.254,1.011,2.254,2.254c0,0.121-0.01,0.242-0.029,0.361l3.945,0.658   c0.055-0.333,0.084-0.676,0.084-1.02c0-1.848-0.811-3.505-2.088-4.651c0.424-0.382,0.893-0.708,1.406-0.959l0.104,0.01   c0.002-0.018,0.002-0.036,0.004-0.055c0.799-0.372,1.682-0.589,2.611-0.589c3.412,0,6.186,2.774,6.186,6.185   c0,2.754-1.771,5.135-4.41,5.925l1.146,3.832c1.469-0.439,2.768-1.184,3.852-2.143c3.846,0.6,6.68,3.862,6.68,7.814   c0,1.413-0.387,2.764-1.09,3.97c-1.979-1.474-4.422-2.356-7.072-2.356c-1.377,0-2.721,0.241-3.99,0.695   c-1.707-2.939-4.883-4.925-8.52-4.925c-2.428,0-4.762,0.892-6.572,2.511l2.666,2.982c1.076-0.963,2.465-1.493,3.906-1.493   c3.229,0,5.855,2.627,5.855,5.856l-0.002,0.125l4,0.072l0.002-0.197c0-0.381-0.025-0.755-0.068-1.125   c0.865-0.32,1.779-0.502,2.723-0.502c4.346,0,7.879,3.535,7.879,7.88C86.137,58.084,82.604,61.619,78.258,61.619z"/></g></svg>
