<svg xmlns="http://www.w3.org/2000/svg" xmlns:xlink="http://www.w3.org/1999/xlink" version="1.1" x="0px" y="0px" viewBox="0 0 65 81.25" enable-background="new 0 0 65 65" xml:space="preserve"><g><path style="fill: #e5e5e5" d="M44.5,25.3c2.6-6,0.5-19-3.5-22.7c-3.1-2.9-13.9-2.9-17,0c-4,3.7-6.1,16.7-3.5,22.7h-20v7h4.2v32.1h4V32.4h20.4v1.2   c-5.6,0.3-10.8,1.2-13.2,2.8c-0.3,0.2-0.6,0.6-0.7,1.1h34.6c-0.2-0.5-0.4-0.9-0.7-1.1c-2.4-1.6-7.6-2.5-13.2-2.8v-1.2h19.3v32.1h4   V32.4h5.3v-7H44.5z"/><path style="fill: #e5e5e5" d="M15,38.5c0,0.1,0,0.2,0,0.3c0,0.9,0.3,1.7,0.9,1.7c2.7,0.2,8,0.3,13.8,0.4v8.6h1.5v1.3l-13.3,4.8v2.8   c-1,0.3-1.7,1.1-1.8,2.1c0,0.1,0.1,0.2,0.2,0.2h0.4v1.1c0,0.2,0.2,0.3,0.4,0.3h0.8c0.2,0,0.4-0.1,0.4-0.3v-1.1h0.5v1.1   c0,0.2,0.2,0.3,0.4,0.3h0.8c0.2,0,0.4-0.1,0.4-0.3v-1.1h0.4c0.1,0,0.2-0.1,0.2-0.2c-0.1-1-0.8-1.9-1.8-2.1V58l12.1-4.3v3.8h0.7v0.9   c-1,0.3-1.7,1.1-1.8,2.1c0,0.1,0.1,0.2,0.2,0.2h0.4v1.1c0,0.2,0.2,0.3,0.4,0.3h0.8c0.2,0,0.4-0.1,0.4-0.3v-1.1h0.5v1.1   c0,0.2,0.2,0.3,0.4,0.3h0.8c0.2,0,0.4-0.1,0.4-0.3v-1.1h0.4c0.1,0,0.2-0.1,0.2-0.2c-0.1-1-0.8-1.9-1.8-2.1v-0.9h0.7v-3.8L46,58v0.3   c-1,0.3-1.7,1.1-1.8,2.1c0,0.1,0.1,0.2,0.2,0.2h0.4v1.1c0,0.2,0.2,0.3,0.4,0.3h0.8c0.2,0,0.4-0.1,0.4-0.3v-1.1h0.5v1.1   c0,0.2,0.2,0.3,0.4,0.3H48c0.2,0,0.4-0.1,0.4-0.3v-1.1h0.4c0.1,0,0.2-0.1,0.2-0.2c-0.1-1-0.8-1.9-1.8-2.1v-2.8L46,55.2v0l-12.1-4.3   v-1.3h1.5v-8.6c5.6,0,10.9-0.1,13.8-0.4c0.6,0,0.9-0.8,0.9-1.7c0-0.1,0-0.2,0-0.3H15z"/></g></svg>
