<svg width='200' height='200' fill="#e5e5e5" xmlns="http://www.w3.org/2000/svg" xmlns:xlink="http://www.w3.org/1999/xlink" version="1.1" x="0px" y="0px" viewBox="0 0 32 30" style="enable-background:new 0 0 32 30;" xml:space="preserve"><g><path d="M31,12H15c0-0.553-0.448-1-1-1h-2V9h4c0.552,0,1-0.447,1-1V1c0-0.553-0.448-1-1-1H5C4.448,0,4,0.447,4,1v7   c0,0.553,0.448,1,1,1h4v2H7c-0.552,0-1,0.447-1,1H1c-0.553,0-1,0.447-1,1s0.447,1,1,1h2v16h2V14h12v14.959   C17,29.534,17.467,30,18.041,30h10.918C29.533,30,30,29.534,30,28.959V14h1c0.553,0,1-0.447,1-1S31.553,12,31,12z M6,2h9v5H6V2z    M28,27.5c0,0.276-0.225,0.5-0.5,0.5h-8c-0.275,0-0.5-0.224-0.5-0.5v-4c0-0.276,0.225-0.5,0.5-0.5h8c0.275,0,0.5,0.224,0.5,0.5   V27.5z M28,20.5c0,0.276-0.225,0.5-0.5,0.5h-8c-0.275,0-0.5-0.224-0.5-0.5v-4c0-0.276,0.225-0.5,0.5-0.5h8   c0.275,0,0.5,0.224,0.5,0.5V20.5z"/><path d="M20,27h7v-3h-7V27z M23.5,25c0.275,0,0.5,0.224,0.5,0.5S23.775,26,23.5,26S23,25.776,23,25.5S23.225,25,23.5,25z"/><path d="M20,20h7v-3h-7V20z M23.5,18c0.275,0,0.5,0.224,0.5,0.5S23.775,19,23.5,19S23,18.776,23,18.5S23.225,18,23.5,18z"/></g></svg>