<svg width='200' height='200' fill="#e5e5e5" xmlns:dc="http://purl.org/dc/elements/1.1/" xmlns:cc="http://creativecommons.org/ns#" xmlns:rdf="http://www.w3.org/1999/02/22-rdf-syntax-ns#" xmlns:svg="http://www.w3.org/2000/svg" xmlns="http://www.w3.org/2000/svg" xmlns:sodipodi="http://sodipodi.sourceforge.net/DTD/sodipodi-0.dtd" xmlns:inkscape="http://www.inkscape.org/namespaces/inkscape" viewBox="0 0 476.63109 394.5092" version="1.1" x="0px" y="0px"><g transform="translate(-146.72099,-393.20902)"><path style="" d="m 189.68299,393.20902 c -23.737,0 -42.962,19.2257 -42.962,42.9623 l 0,259.2304 c 0,23.7366 19.225,42.9624 42.962,42.9624 l 142.803,0 -12.46,30.0171 c -4.059,9.9005 3.227,19.337 13.917,19.337 l 102.187,0 c 10.688,0 17.976,-9.4365 13.916,-19.337 l -12.46,-30.0171 142.804,0 c 23.736,0 42.962,-19.2258 42.962,-42.9624 l 0,-259.2304 c 0.04,-23.6954 -19.145,-42.9623 -42.882,-42.9623 l -390.787,0 z m 19.256,32.8488 352.275,0 c 16.197,0 29.289,13.1727 29.289,29.3699 l 0,187.8692 c 0,16.197 -13.092,29.3699 -29.289,29.3699 l -352.275,0 c -16.197,0 -29.289,-13.1729 -29.289,-29.3699 l 0,-187.8692 c 0,-16.1972 13.092,-29.3699 29.289,-29.3699 z m 204.294,39.402 c -2.071,0 -3.807,0.073 -5.259,0.2553 -1.451,0.1822 -2.647,0.4156 -3.558,0.7291 -0.912,0.3281 -1.608,0.7584 -2.104,1.2944 -0.496,0.5395 -0.886,1.2359 -1.134,2.1036 l -57.607,161.6554 c -0.372,1.0754 -0.528,2.0453 -0.415,2.8328 0.109,0.8276 0.587,1.524 1.458,2.0235 0.871,0.4958 2.228,0.886 3.882,1.1339 1.658,0.2552 3.782,0.4156 6.392,0.4156 2.154,0 3.89,-0.073 5.258,-0.2552 1.368,-0.1823 2.527,-0.4156 3.479,-0.7292 0.951,-0.3281 1.684,-0.7948 2.184,-1.2943 0.496,-0.5396 0.882,-1.1922 1.214,-2.0235 l 57.525,-161.7358 c 0.292,-1.0755 0.449,-2.0053 0.329,-2.8329 -0.183,-0.8277 -0.587,-1.4839 -1.459,-2.0198 -0.871,-0.4959 -2.063,-0.8824 -3.72,-1.1303 -1.615,-0.2552 -3.824,-0.4156 -6.473,-0.4156 z m 26.78,39.6456 c -0.663,-0.037 -1.122,0.2553 -1.538,0.8094 -0.416,0.5798 -0.726,1.5459 -0.89,2.9132 -0.182,1.3671 -0.255,3.223 -0.255,5.5826 0,2.6907 0.04,4.8178 0.182,6.3917 0.07,1.5313 0.328,2.811 0.646,3.7199 0.328,0.9116 0.754,1.648 1.374,2.1038 0.62,0.4557 1.47,0.8349 2.505,1.2943 l 54.37,25.243 -55.502,26.0529 c -0.788,0.2917 -1.404,0.638 -1.86,1.0536 -0.416,0.4156 -0.722,1.1084 -0.97,2.0198 -0.255,0.8715 -0.485,2.1075 -0.568,3.6424 -0.11,1.5313 -0.183,3.6204 -0.183,6.2298 0,1.9068 0.109,3.5293 0.255,4.7732 0.109,1.2434 0.434,2.2131 0.89,2.833 0.416,0.6635 0.875,0.9697 1.539,1.0536 0.663,0.073 1.473,-0.1088 2.344,-0.5687 l 73.87,-36.5702 c 0.415,-0.1824 0.842,-0.5543 1.214,-1.0538 0.372,-0.4958 0.601,-1.1157 0.809,-1.9433 0.255,-0.8275 0.445,-1.8739 0.569,-3.0735 0.182,-1.1995 0.182,-2.6287 0.182,-4.2877 0,-3.3141 -0.219,-5.7868 -0.729,-7.4438 -0.496,-1.6553 -1.072,-2.7017 -1.943,-3.0736 l -73.95,-36.894 c -0.912,-0.4557 -1.681,-0.7656 -2.345,-0.8094 z m -112.462,0.8094 -73.708,36.6513 c -0.456,0.2551 -0.882,0.5541 -1.214,1.0536 -0.372,0.4557 -0.642,1.1558 -0.809,1.9433 -0.219,0.8277 -0.445,1.8303 -0.569,3.0735 -0.182,1.2432 -0.182,2.7126 -0.182,4.3689 0,3.2705 0.255,5.7056 0.645,7.3627 0.456,1.6589 1.072,2.7381 1.943,3.2339 l 73.87,36.8138 c 0.995,0.4558 1.764,0.7657 2.428,0.8095 0.62,0.037 1.079,-0.2553 1.535,-0.8095 0.372,-0.5797 0.642,-1.5459 0.809,-2.913 0.219,-1.3272 0.328,-3.2231 0.328,-5.5824 0,-2.6943 -0.04,-4.8571 -0.182,-6.4727 -0.182,-1.5312 -0.416,-2.8109 -0.729,-3.7243 -0.328,-0.9114 -0.755,-1.6479 -1.375,-2.1036 -0.619,-0.4558 -1.392,-0.8423 -2.344,-1.2943 l -54.451,-25.2431 55.503,-25.9719 c 0.787,-0.3719 1.403,-0.7583 1.859,-1.1303 0.456,-0.3718 0.762,-1.0317 1.054,-1.9433 0.255,-0.8713 0.415,-2.1073 0.485,-3.6422 0.07,-1.5313 0.182,-3.6204 0.182,-6.2302 0,-3.8526 -0.328,-6.4019 -1.134,-7.686 -0.788,-1.2834 -2.1,-1.4365 -3.965,-0.5688 z m 57.526,182.2866 c 8.699,0 15.696,6.9966 15.696,15.6958 0,8.6995 -6.997,15.6965 -15.696,15.6965 -8.658,0 -15.696,-6.997 -15.696,-15.6965 0,-8.6992 7.038,-15.6958 15.696,-15.6958 z" fill="#e5e5e5"/></g></svg>