<svg xmlns="http://www.w3.org/2000/svg" xmlns:xlink="http://www.w3.org/1999/xlink" version="1.1" x="0px" y="0px" viewBox="0 0 26 40" style="enable-background:new 0 0 26 32;" xml:space="preserve"><g><path style="fill: #e5e5e5" d="M18,12c0-2.762-2.238-5-5-5s-5,2.238-5,5c0,1.795,0.953,3.356,2.374,4.238C10.15,16.422,10,16.688,10,17   c0,0.553,0.447,1,1,1c-0.553,0-1,0.447-1,1s0.447,1,1,1h1c0,0.553,0.447,1,1,1s1-0.447,1-1h1c0.553,0,1-0.447,1-1s-0.447-1-1-1   c0.553,0,1-0.447,1-1c0-0.312-0.15-0.578-0.374-0.762C17.047,15.356,18,13.795,18,12z M11.5,9c0.828,0,1.5,0.672,1.5,1.5   S12.328,12,11.5,12S10,11.328,10,10.5S10.672,9,11.5,9z"/><path style="fill: #e5e5e5" d="M19.924,11.024C19.969,11.345,20,11.668,20,12c0,0.349-0.033,0.69-0.084,1.028c2.42,0.13,3.822,0.746,4.084,1.057v13.713   C22.667,27.256,20.829,27,19,27c-1.561,0-3.543,0.246-5,0.84v-5.028C13.686,22.924,13.354,23,13,23s-0.686-0.076-1-0.188v4.986   C10.667,27.256,8.829,27,7,27c-1.561,0-3.543,0.246-5,0.84V14.085c0.262-0.311,1.664-0.927,4.084-1.057C6.033,12.69,6,12.349,6,12   c0-0.332,0.031-0.655,0.076-0.976C2.921,11.176,0,12.111,0,14v15v1v1h10c0,0.553,1.343,1,3,1s3-0.447,3-1h10v-1v-1V14   C26,12.111,23.079,11.176,19.924,11.024z"/><path style="fill: #e5e5e5" d="M13,6c0.553,0,1-0.447,1-1V1c0-0.553-0.447-1-1-1s-1,0.447-1,1v4C12,5.553,12.447,6,13,6z"/><path style="fill: #e5e5e5" d="M8.445,6.832C8.616,6.945,8.809,7,8.999,7C9.322,7,9.64,6.844,9.832,6.555c0.307-0.46,0.183-1.08-0.277-1.387l-3-2   C6.094,2.862,5.474,2.985,5.168,3.445c-0.307,0.46-0.183,1.08,0.277,1.387L8.445,6.832z"/><path style="fill: #e5e5e5" d="M17.001,7c0.19,0,0.383-0.055,0.554-0.168l3-2c0.46-0.307,0.584-0.927,0.277-1.387c-0.306-0.46-0.926-0.583-1.387-0.277   l-3,2c-0.46,0.307-0.584,0.927-0.277,1.387C16.36,6.844,16.678,7,17.001,7z"/></g></svg>
