<?xml version="1.0" ?><svg id="Layer_1" style="enable-background:new 0 0 512 512;" version="1.1" viewBox="0 0 512 512" xml:space="preserve" xmlns="http://www.w3.org/2000/svg" xmlns:xlink="http://www.w3.org/1999/xlink"><g><path style="fill: #ccc" d="M379,265.9L188.9,138.8c-5.5-3.7-13-2.2-16.6,3.3L99.6,250.9c-3.7,5.5-2.2,13,3.3,16.6L293,394.6   c5.5,3.7,13,2.2,16.6-3.3l72.7-108.8C386,277,384.5,269.5,379,265.9z" id="XMLID_3_"/><path style="fill: #ccc" d="M402.3,25.4C349.5-9.9,278.1,4.3,242.9,57.1c-14.7,22-20.8,47.1-19.1,71.6l151.3,101.1   c23.2-7.8,44.2-23.1,58.9-45C469.2,132,455,60.7,402.3,25.4z" id="XMLID_2_"/><path style="fill: #ccc" d="M61,440.3c-4.5,7.6-2.2,17.4,5.1,22.3l60.7,40.6c7.3,4.9,17.2,3.2,22.5-3.8l84.2-111.1L131.4,320L61,440.3z" id="XMLID_1_"/></g></svg>
