<?xml version="1.0" ?><!DOCTYPE svg  PUBLIC '-//W3C//DTD SVG 1.1//EN'  'http://www.w3.org/Graphics/SVG/1.1/DTD/svg11.dtd'><svg enable-background="new 0 0 500 500" height="500px" id="Layer_1" version="1.1" viewBox="0 0 500 500" width="500px" xml:space="preserve" xmlns="http://www.w3.org/2000/svg" xmlns:xlink="http://www.w3.org/1999/xlink"><path style="fill: #ccc" clip-rule="evenodd" d="M327.228,159.145c-32.614,0-59.056,26.441-59.056,59.056  c0,32.615,26.441,59.057,59.056,59.057c32.616,0,59.057-26.442,59.057-59.057C386.284,185.585,359.844,159.145,327.228,159.145z   M377.198,377.198v22.711c0,12.54,10.175,22.715,22.711,22.715c12.54,0,22.715-10.175,22.715-22.715v-22.711h9.087  c20.078,0,36.34-16.267,36.34-36.346V218.201c0-77.773-63.049-140.825-140.823-140.825c-40.975,0-77.866,17.536-103.579,45.427  H68.29c-20.077,0-36.34,16.264-36.34,36.342v181.708c0,20.079,16.264,36.346,36.34,36.346h9.086v22.711  c0,12.54,10.177,22.715,22.714,22.715c12.538,0,22.713-10.175,22.713-22.715v-22.711H377.198z M77.375,190.944  c0-12.536,10.177-22.713,22.714-22.713c12.538,0,22.713,10.177,22.713,22.713c0,12.537-10.175,22.714-22.713,22.714  C87.553,213.658,77.375,203.481,77.375,190.944z M327.228,122.802c52.694,0,95.396,42.704,95.396,95.398  c0,52.696-42.702,95.398-95.396,95.398c-52.693,0-95.398-42.702-95.398-95.398C231.83,165.506,274.534,122.802,327.228,122.802z" fill="#010101" fill-rule="evenodd"/></svg>
