<svg width='200' height='200' fill="#e5e5e5" xmlns="http://www.w3.org/2000/svg" data-name="Layer 1" viewBox="0 0 100 100" x="0px" y="0px"><title>Artboard 16</title><path d="M96.72,6.84a5.27,5.27,0,0,0-1.49-4.47,4.91,4.91,0,0,0-4-1.33C61.11,4.7,43.86,18.19,34,31.47l-4.61-.24a11.86,11.86,0,0,0-9,3.46l-7.2,7.2a.75.75,0,0,0,.24,1.22l11.48,4.76a66.25,66.25,0,0,0-3.09,10.06,3.72,3.72,0,0,0,1,3.42L36.44,74.93a3.72,3.72,0,0,0,3.42,1h0a66.32,66.32,0,0,0,10.06-3.09l4.76,11.48a.75.75,0,0,0,1.22.24l7.2-7.2a11.87,11.87,0,0,0,3.46-9l-.24-4.61C79.57,54,93,36.78,96.72,6.84Zm-38,41.35a6.45,6.45,0,1,1,0-9.12A6.45,6.45,0,0,1,58.73,48.18Zm4-13.08a8.49,8.49,0,1,1,12,0A8.49,8.49,0,0,1,62.69,35.1ZM10.9,77.39a12.45,12.45,0,0,0-6.28-.5,1.14,1.14,0,0,1-1-.31,1.15,1.15,0,0,1-.24-1.3c2.18-4.83,8.18-14.54,18.93-6.7a.54.54,0,0,1,0,.8A11.71,11.71,0,0,0,17.83,79a.85.85,0,0,0,.82.82,11.71,11.71,0,0,0,9.6-4.37.54.54,0,0,1,.83,0c1.5,1.79,5.62,7.6,1.06,13.22a11.86,11.86,0,0,1-8,4.2c-4.45.49-12.63,1.89-16,5.74a1.15,1.15,0,0,1-2-.42C3,94.15,1.21,85.15,10.9,77.39Z"/></svg>